<svg xmlns="http://www.w3.org/2000/svg" xml:space="preserve" id="Layer_1" x="0" y="0" viewBox="0 0 1080 1080"><style>.st0{fill:#71bfdd}.st1{fill:#d44e50}.st2{fill:#6195d9}.st4{fill:#fff}.st5{fill:none;stroke:#9d2323;stroke-width:30.0834;stroke-linecap:round;stroke-linejoin:round;stroke-miterlimit:10}.st7{fill:#8083bf}.st10{opacity:.21;fill:#c7a3e8}</style><path d="M901.02 120.67 722.8 198.83a61.6 61.6 0 0 0-18.81 12.85L358.24 557.43 547.71 746.9l345.41-345.41a61.6 61.6 0 0 0 13.21-19.64l76.18-180.86c21.62-51.31-30.51-102.68-81.49-80.32" class="st0"/><path d="m607.14 832.65-56.51 56.47c-8.89 8.89-23.31 8.88-32.2-.01l-88.72-88.72c-8.89-8.89-23.32-8.89-32.21 0l-80.66 80.71c-8.89 8.89-8.89 23.31 0 32.2s8.89 23.31 0 32.2l-64.52 64.52c-8.89 8.89-23.31 8.89-32.2 0L99.14 889.04c-8.89-8.89-8.89-23.31 0-32.2l64.52-64.52c8.89-8.89 23.31-8.89 32.2 0l.06.06c8.89 8.89 23.32 8.89 32.21 0l80.66-80.71c8.89-8.89 8.89-23.31 0-32.2l-88.72-88.72c-8.9-8.9-8.89-23.32.01-32.21l56.51-56.47c8.89-8.89 23.31-8.88 32.2.01l298.37 298.37c8.88 8.88 8.88 23.3-.02 32.2" class="st2"/></svg>
